# xmcd
#
# Track frame offsets:
#	150
#	20131
#	38822
#	53160
#	72843
#	92208
#	111497
#	131345
#	151695
#	172961
#	193768
#	217527
#	233500
#	251834
#	271993
#
# Disc length: 3867 seconds
#
# Revision: 0
# Processed by: cddbd v1.5.2PL0 Copyright (c) Steve Scherf et al.
# Submitted via: audiograbber 1.83.01
#
DISCID=c70f190f
DTITLE=MASTERMIX - MASTERMIX DJ Beats 39  2016 Febr. ORIG CD
DYEAR=2016
DGENRE=MASTERMIX DJ
TTITLE0=D´BAN - Oliver Twist
TTITLE1=APACHE INDIAN - Boom Shack-A-Lak
TTITLE2=ALVIN STARDUST - My Coo-Ca-Choo
TTITLE3=TAYLOR DAYNE - Tell It To My Heart
TTITLE4=MARIA VIDAL - Body Rock
TTITLE5=BILLY JOEL - Tell Her About It
TTITLE6=CROWN HEIGHTS AFFAIR - You Gave Me Love
TTITLE7=THE RUBETTS - Sugar Baby Love
TTITLE8=CHARLES and EDDIE - Would I Lie To You
TTITLE9=SHERYL CROW - All I Wanna Do
TTITLE10=KISS - I Was Made For Lovin' You
TTITLE11=TONI BASIL - Mickey
TTITLE12=FINE YOUNG CANNIBALS - She Drives Me Crazy
TTITLE13=KOOL and THE GANG - Fresh  MASTERMIX DJ BEATS 39
TTITLE14=BROTHER BEYOND - The Harder I Try
EXTD=
EXTT0=
EXTT1=
EXTT2=
EXTT3=
EXTT4=
EXTT5=
EXTT6=
EXTT7=
EXTT8=
EXTT9=
EXTT10=
EXTT11=
EXTT12=
EXTT13=
EXTT14=
PLAYORDER=
